<svg xmlns="http://www.w3.org/2000/svg" viewBox="0 0 64 64" width="64" height="64">
  <defs>
    <linearGradient id="g" x1="0" y1="0" x2="1" y2="1">
      <stop offset="0" stop-color="#8B5CF6"/>
      <stop offset="1" stop-color="#7C3AED"/>
    </linearGradient>
  </defs>
  <rect width="64" height="64" rx="16" fill="url(#g)"/>
  <path fill="#fff" d="M32 10c1.6 8.4 3.6 10.4 12 12-8.4 1.6-10.4 3.6-12 12-1.6-8.4-3.6-10.4-12-12 8.4-1.6 10.4-3.6 12-12Z"/>
  <path fill="#fff" opacity=".75" d="M44 38c.9 4.7 2 5.8 6.7 6.7-4.7.9-5.8 2-6.7 6.7-.9-4.7-2-5.8-6.7-6.7 4.7-.9 5.8-2 6.7-6.7Z"/>
</svg>
